<?xml version="1.0" encoding="utf-8"?>
<!-- Generator: Adobe Illustrator 25.4.1, SVG Export Plug-In . SVG Version: 6.00 Build 0)  -->
<svg version="1.1" id="Layer_1" xmlns="http://www.w3.org/2000/svg" xmlns:xlink="http://www.w3.org/1999/xlink" x="0px" y="0px"
	 viewBox="0 0 104 50" style="enable-background:new 0 0 104 50;" xml:space="preserve">
<style type="text/css">
	.st0{fill-rule:evenodd;clip-rule:evenodd;fill:#F5F4E9;}
	.st1{fill-rule:evenodd;clip-rule:evenodd;fill:#FFFFFF;filter:url(#Adobe_OpacityMaskFilter);}
	.st2{mask:url(#mask0_117:378_00000135672685776074388220000013349010565937605779_);}
	.st3{fill:#F5F4E9;}
</style>
<path class="st0" d="M89.6,39.5l-8.9-24.9h6.2l5.3,17.2l5.2-17.2h6.1L93.4,43.2l-0.6,1.3c-0.7,1.6-1.7,2.7-2.9,3.5
	c-1.2,0.8-2.6,1.1-4.3,1.1c-0.8,0-1.6-0.1-2.5-0.3v-4.1l0.4,0h0c1.3,0,2.5-0.2,3.2-0.7c0.8-0.5,1.4-1.2,1.8-2.2L89.6,39.5z"/>
<defs>
	<filter id="Adobe_OpacityMaskFilter" filterUnits="userSpaceOnUse" x="12" y="4.1" width="27.1" height="37.9">
		<feColorMatrix  type="matrix" values="1 0 0 0 0  0 1 0 0 0  0 0 1 0 0  0 0 0 1 0"/>
	</filter>
</defs>
<mask maskUnits="userSpaceOnUse" x="12" y="4.1" width="27.1" height="37.9" id="mask0_117:378_00000135672685776074388220000013349010565937605779_">
	<path class="st1" d="M9.1,0h31v46h-31V0z"/>
</mask>
<g class="st2">
	<path class="st0" d="M12,4.1c0.3,0.4,0.5,0.9,0.5,1.4l0,27.1c0,2.9,0,5.9,0,8.8h6l0-4.3l0.9,1.5c0.7,1.1,1.5,1.9,2.7,2.5
		c1.2,0.6,2.7,0.9,4.9,0.9c4,0,7-1.7,9.1-4.3c2-2.7,3.1-6.4,3.1-10.4c0-3.9-1-7.4-2.9-9.8c-1.9-2.4-4.7-3.9-8.4-3.9
		c-4.8,0-7.1,1.9-8.2,3.8l-0.9,1.5V4.1H12z M26.4,37c-5.2,0-6.8-4-6.8-9.1c0-6.1,1.8-9.3,6.9-9.3c4.6,0,6.7,3.7,6.7,8.8
		C33.2,33.2,30.8,37,26.4,37z"/>
</g>
<path class="st0" d="M42.7,15.3c-0.1-0.4-0.2-0.8-0.5-1.1l6.6,0v6.6l1-1.7c1.2-3,4-4.7,8.5-4.9v4.2c-2.8,0.1-5.1,0.8-6.8,2.4
	c-1.8,1.7-2.7,4.5-2.7,8.3v12.3h-6v-20C42.7,19,42.7,17.1,42.7,15.3L42.7,15.3L42.7,15.3z"/>
<path class="st0" d="M65.8,14.1h6v0h5.9v4.2h-5.9v15.3c0,1.2,0.2,2.2,0.8,2.9c0.6,0.7,1.6,1,2.9,1c0.4,0,1,0,1.6-0.1v3.9
	c-1.4,0.4-3.1,0.4-4.6,0.4c-2.6,0-4.2-0.7-5.2-1.8c-1-1.2-1.5-2.9-1.5-5.3V18.4h-4.7v-4.2L65.8,14.1L65.8,14.1z"/>
<path class="st0" d="M0,4.1h6.9v37.3h-6l0-35.9l0,0c0-0.4-0.3-0.8-0.5-1C0.3,4.3,0.1,4.2,0,4.1z"/>
<path class="st0" d="M72.3,4.2h-6.6v8l0.5,0c1.6,0,3.1-1.2,4.3-3C71.5,7.7,72.1,5.8,72.3,4.2z"/>
<path class="st3" d="M70.7,4.2v3.2h-5V5.6c0-0.7-0.7-1.4-1.6-1.4h1.6H70.7z"/>
</svg>
